<svg xmlns="http://www.w3.org/2000/svg" width="512" height="512" viewBox="0 0 512 512">
  <rect width="512" height="512" fill="#000000"/>
  <g fill="#FFFFFF">
    <!-- Puzzle piece icon -->
    <path d="M140 140h90v-35c0-20 16-36 36-36s36 16 36 36v35h90v90h35c20 0 36 16 36 36s-16 36-36 36h-35v90h-90v35c0 20-16 36-36 36s-36-16-36-36v-35h-90v-90h-35c-20 0-36-16-36-36s16-36 36-36h35v-90z"/>
    <!-- Game elements -->
    <circle cx="190" cy="320" r="14"/>
    <circle cx="235" cy="320" r="14"/>
    <circle cx="350" cy="320" r="14"/>
  </g>
  <text x="256" y="455" text-anchor="middle" fill="#FFFFFF" font-family="sans-serif" font-size="52" font-weight="bold">PUZZLES</text>
</svg>
